<svg xmlns="http://www.w3.org/2000/svg" xmlns:xlink="http://www.w3.org/1999/xlink" width="500" zoomAndPan="magnify" viewBox="0 0 375 374.999991" height="500" preserveAspectRatio="xMidYMid meet" version="1.0"><defs><g/><clipPath id="fba6cec880"><path d="M 193.414062 82.542969 L 271.246094 82.542969 L 271.246094 266.421875 L 193.414062 266.421875 Z M 193.414062 82.542969 " clip-rule="nonzero"/></clipPath><clipPath id="dab73e41f4"><path d="M 193.414062 70.023438 L 286 70.023438 L 286 278.941406 L 193.414062 278.941406 Z M 193.414062 70.023438 " clip-rule="nonzero"/></clipPath><clipPath id="bae058427a"><path d="M 96.804688 209.917969 L 189.664062 209.917969 L 189.664062 313.921875 L 96.804688 313.921875 Z M 96.804688 209.917969 " clip-rule="nonzero"/></clipPath><clipPath id="5b5caf0ffe"><path d="M 178 30 L 220 30 L 220 74 L 178 74 Z M 178 30 " clip-rule="nonzero"/></clipPath><clipPath id="0a683f930c"><path d="M 178.019531 43.792969 L 193.359375 30.179688 L 219.808594 59.980469 L 204.46875 73.59375 Z M 178.019531 43.792969 " clip-rule="nonzero"/></clipPath><clipPath id="36decdada7"><path d="M 178.019531 43.792969 L 193.339844 30.199219 L 219.742188 59.949219 L 204.425781 73.542969 Z M 178.019531 43.792969 " clip-rule="nonzero"/></clipPath><clipPath id="5b8c7edb48"><path d="M 162 301 L 204 301 L 204 345 L 162 345 Z M 162 301 " clip-rule="nonzero"/></clipPath><clipPath id="041acb81bb"><path d="M 162.105469 315.046875 L 177.445312 301.433594 L 203.894531 331.230469 L 188.554688 344.84375 Z M 162.105469 315.046875 " clip-rule="nonzero"/></clipPath><clipPath id="425bc4e135"><path d="M 162.105469 315.046875 L 177.425781 301.449219 L 203.828125 331.199219 L 188.511719 344.792969 Z M 162.105469 315.046875 " clip-rule="nonzero"/></clipPath></defs><rect x="-37.5" width="450" fill="#ffffff" y="-37.499999" height="449.999989" fill-opacity="1"/><rect x="-37.5" width="450" fill="#ffffff" y="-37.499999" height="449.999989" fill-opacity="1"/><rect x="-37.5" width="450" fill="#ffffff" y="-37.499999" height="449.999989" fill-opacity="1"/><g clip-path="url(#fba6cec880)"><path fill="#919191" d="M 193.414062 82.542969 L 271.34375 82.542969 L 271.34375 266.527344 L 193.414062 266.527344 Z M 193.414062 82.542969 " fill-opacity="1" fill-rule="nonzero"/></g><g clip-path="url(#dab73e41f4)"><path fill="#ffffff" d="M 193.414062 70.023438 L 285.992188 70.023438 L 285.992188 279.203125 L 193.414062 279.203125 Z M 193.414062 70.023438 " fill-opacity="1" fill-rule="nonzero"/></g><g clip-path="url(#bae058427a)"><path fill="#ffffff" d="M 96.804688 209.917969 L 189.382812 209.917969 L 189.382812 314.214844 L 96.804688 314.214844 Z M 96.804688 209.917969 " fill-opacity="1" fill-rule="nonzero"/></g><g clip-path="url(#5b5caf0ffe)"><g clip-path="url(#0a683f930c)"><g clip-path="url(#36decdada7)"><path fill="#ffffff" d="M 178.019531 43.792969 L 193.359375 30.179688 L 219.808594 59.980469 L 204.46875 73.59375 Z M 178.019531 43.792969 " fill-opacity="1" fill-rule="nonzero"/></g></g></g><g clip-path="url(#5b8c7edb48)"><g clip-path="url(#041acb81bb)"><g clip-path="url(#425bc4e135)"><path fill="#ffffff" d="M 162.105469 315.046875 L 177.445312 301.433594 L 203.894531 331.230469 L 188.554688 344.84375 Z M 162.105469 315.046875 " fill-opacity="1" fill-rule="nonzero"/></g></g></g><g fill="#38b6ff" fill-opacity="1"><g transform="translate(32.971874, 188.250016)"><g><path d="M 13.09375 0.546875 C 11 0.546875 9.050781 0.117188 7.25 -0.734375 C 5.457031 -1.597656 3.992188 -2.800781 2.859375 -4.34375 C 2.421875 -5 2.203125 -5.640625 2.203125 -6.265625 C 2.203125 -7.148438 2.550781 -7.910156 3.25 -8.546875 C 3.945312 -9.191406 4.660156 -9.515625 5.390625 -9.515625 C 6.335938 -9.515625 7.363281 -8.960938 8.46875 -7.859375 C 9.164062 -7.203125 9.878906 -6.734375 10.609375 -6.453125 C 11.347656 -6.179688 12.175781 -6.046875 13.09375 -6.046875 C 14.15625 -6.046875 15.171875 -6.320312 16.140625 -6.875 C 17.109375 -7.425781 17.882812 -8.164062 18.46875 -9.09375 C 19.0625 -10.03125 19.359375 -11.015625 19.359375 -12.046875 L 19.359375 -35.140625 C 19.359375 -36.097656 19.707031 -36.894531 20.40625 -37.53125 C 21.101562 -38.175781 21.910156 -38.5 22.828125 -38.5 C 23.847656 -38.5 24.671875 -38.1875 25.296875 -37.5625 C 25.921875 -36.9375 26.234375 -36.128906 26.234375 -35.140625 L 26.234375 -12.046875 C 26.234375 -9.847656 25.644531 -7.773438 24.46875 -5.828125 C 23.300781 -3.890625 21.707031 -2.34375 19.6875 -1.1875 C 17.675781 -0.03125 15.476562 0.546875 13.09375 0.546875 Z M 13.09375 0.546875 "/></g></g></g><g fill="#ffffff" fill-opacity="1"><g transform="translate(63.323434, 188.250016)"><g><path d="M 25.40625 -29.421875 C 26.363281 -29.421875 27.148438 -29.097656 27.765625 -28.453125 C 28.390625 -27.816406 28.703125 -27.019531 28.703125 -26.0625 L 28.703125 -12.09375 C 28.703125 -8.132812 27.613281 -5.035156 25.4375 -2.796875 C 23.257812 -0.566406 20.148438 0.546875 16.109375 0.546875 C 12.078125 0.546875 8.976562 -0.566406 6.8125 -2.796875 C 4.65625 -5.035156 3.578125 -8.132812 3.578125 -12.09375 L 3.578125 -26.0625 C 3.578125 -27.019531 3.882812 -27.816406 4.5 -28.453125 C 5.125 -29.097656 5.914062 -29.421875 6.875 -29.421875 C 7.832031 -29.421875 8.617188 -29.097656 9.234375 -28.453125 C 9.859375 -27.816406 10.171875 -27.019531 10.171875 -26.0625 L 10.171875 -12.09375 C 10.171875 -9.863281 10.664062 -8.207031 11.65625 -7.125 C 12.644531 -6.039062 14.128906 -5.5 16.109375 -5.5 C 18.128906 -5.5 19.632812 -6.039062 20.625 -7.125 C 21.613281 -8.207031 22.109375 -9.863281 22.109375 -12.09375 L 22.109375 -26.0625 C 22.109375 -27.019531 22.421875 -27.816406 23.046875 -28.453125 C 23.671875 -29.097656 24.457031 -29.421875 25.40625 -29.421875 Z M 25.40625 -29.421875 "/></g></g></g><g fill="#ffffff" fill-opacity="1"><g transform="translate(95.606094, 188.250016)"><g><path d="M 27.390625 -29.96875 C 28.335938 -29.96875 29.125 -29.65625 29.75 -29.03125 C 30.375 -28.414062 30.6875 -27.613281 30.6875 -26.625 L 30.6875 -3.359375 C 30.6875 -2.398438 30.375 -1.597656 29.75 -0.953125 C 29.125 -0.316406 28.335938 0 27.390625 0 C 26.429688 0 25.648438 -0.3125 25.046875 -0.9375 C 24.441406 -1.5625 24.125 -2.347656 24.09375 -3.296875 C 23.175781 -2.234375 21.9375 -1.328125 20.375 -0.578125 C 18.820312 0.171875 17.179688 0.546875 15.453125 0.546875 C 12.921875 0.546875 10.628906 -0.101562 8.578125 -1.40625 C 6.523438 -2.707031 4.898438 -4.507812 3.703125 -6.8125 C 2.515625 -9.125 1.921875 -11.75 1.921875 -14.6875 C 1.921875 -17.613281 2.503906 -20.238281 3.671875 -22.5625 C 4.847656 -24.894531 6.453125 -26.710938 8.484375 -28.015625 C 10.523438 -29.316406 12.773438 -29.96875 15.234375 -29.96875 C 16.992188 -29.96875 18.644531 -29.644531 20.1875 -29 C 21.726562 -28.363281 23.03125 -27.550781 24.09375 -26.5625 L 24.09375 -26.625 C 24.09375 -27.570312 24.398438 -28.363281 25.015625 -29 C 25.640625 -29.644531 26.429688 -29.96875 27.390625 -29.96875 Z M 16.28125 -5.5 C 18.664062 -5.5 20.609375 -6.367188 22.109375 -8.109375 C 23.609375 -9.847656 24.359375 -12.039062 24.359375 -14.6875 C 24.359375 -17.320312 23.609375 -19.519531 22.109375 -21.28125 C 20.609375 -23.039062 18.664062 -23.921875 16.28125 -23.921875 C 13.9375 -23.921875 12.007812 -23.039062 10.5 -21.28125 C 9 -19.519531 8.25 -17.320312 8.25 -14.6875 C 8.25 -12.039062 8.988281 -9.847656 10.46875 -8.109375 C 11.957031 -6.367188 13.894531 -5.5 16.28125 -5.5 Z M 16.28125 -5.5 "/></g></g></g><g fill="#ffffff" fill-opacity="1"><g transform="translate(129.868604, 188.250016)"><g><path d="M 19.3125 -29.96875 C 23.050781 -29.96875 25.632812 -28.859375 27.0625 -26.640625 C 28.488281 -24.421875 29.203125 -21.351562 29.203125 -17.4375 L 29.203125 -3.359375 C 29.203125 -2.398438 28.890625 -1.597656 28.265625 -0.953125 C 27.640625 -0.316406 26.851562 0 25.90625 0 C 24.945312 0 24.15625 -0.316406 23.53125 -0.953125 C 22.914062 -1.597656 22.609375 -2.398438 22.609375 -3.359375 L 22.609375 -17.4375 C 22.609375 -19.445312 22.1875 -21.03125 21.34375 -22.1875 C 20.5 -23.34375 19.050781 -23.921875 17 -23.921875 C 14.875 -23.921875 13.203125 -23.304688 11.984375 -22.078125 C 10.773438 -20.847656 10.171875 -19.300781 10.171875 -17.4375 L 10.171875 -3.359375 C 10.171875 -2.398438 9.859375 -1.597656 9.234375 -0.953125 C 8.617188 -0.316406 7.832031 0 6.875 0 C 5.914062 0 5.125 -0.316406 4.5 -0.953125 C 3.882812 -1.597656 3.578125 -2.398438 3.578125 -3.359375 L 3.578125 -26.0625 C 3.578125 -27.019531 3.882812 -27.816406 4.5 -28.453125 C 5.125 -29.097656 5.914062 -29.421875 6.875 -29.421875 C 7.832031 -29.421875 8.617188 -29.097656 9.234375 -28.453125 C 9.859375 -27.816406 10.171875 -27.019531 10.171875 -26.0625 L 10.171875 -25.140625 C 11.160156 -26.453125 12.453125 -27.582031 14.046875 -28.53125 C 15.640625 -29.488281 17.394531 -29.96875 19.3125 -29.96875 Z M 19.3125 -29.96875 "/></g></g></g><g fill="#000000" fill-opacity="1"><g transform="translate(162.639838, 188.250016)"><g/></g></g><g fill="#38b6ff" fill-opacity="1"><g transform="translate(178.038274, 188.250016)"><g><path d="M 20.015625 -38.5 C 21.890625 -38.5 23.671875 -37.9375 25.359375 -36.8125 C 27.046875 -35.695312 28.398438 -34.195312 29.421875 -32.3125 C 30.453125 -30.425781 30.96875 -28.363281 30.96875 -26.125 C 30.96875 -23.925781 30.453125 -21.875 29.421875 -19.96875 C 28.398438 -18.0625 27.046875 -16.546875 25.359375 -15.421875 C 23.671875 -14.304688 21.890625 -13.75 20.015625 -13.75 L 10.453125 -13.75 L 10.453125 -3.359375 C 10.453125 -2.367188 10.15625 -1.5625 9.5625 -0.9375 C 8.976562 -0.3125 8.210938 0 7.265625 0 C 6.347656 0 5.59375 -0.316406 5 -0.953125 C 4.414062 -1.597656 4.125 -2.398438 4.125 -3.359375 L 4.125 -35.140625 C 4.125 -36.097656 4.441406 -36.894531 5.078125 -37.53125 C 5.722656 -38.175781 6.523438 -38.5 7.484375 -38.5 Z M 20.015625 -20.015625 C 20.710938 -20.015625 21.398438 -20.304688 22.078125 -20.890625 C 22.753906 -21.484375 23.300781 -22.242188 23.71875 -23.171875 C 24.144531 -24.109375 24.359375 -25.09375 24.359375 -26.125 C 24.359375 -27.15625 24.144531 -28.132812 23.71875 -29.0625 C 23.300781 -30 22.753906 -30.75 22.078125 -31.3125 C 21.398438 -31.882812 20.710938 -32.171875 20.015625 -32.171875 L 10.453125 -32.171875 L 10.453125 -20.015625 Z M 20.015625 -20.015625 "/></g></g></g><g fill="#ffffff" fill-opacity="1"><g transform="translate(211.190612, 188.250016)"><g><path d="M 27.390625 -29.96875 C 28.335938 -29.96875 29.125 -29.65625 29.75 -29.03125 C 30.375 -28.414062 30.6875 -27.613281 30.6875 -26.625 L 30.6875 -3.359375 C 30.6875 -2.398438 30.375 -1.597656 29.75 -0.953125 C 29.125 -0.316406 28.335938 0 27.390625 0 C 26.429688 0 25.648438 -0.3125 25.046875 -0.9375 C 24.441406 -1.5625 24.125 -2.347656 24.09375 -3.296875 C 23.175781 -2.234375 21.9375 -1.328125 20.375 -0.578125 C 18.820312 0.171875 17.179688 0.546875 15.453125 0.546875 C 12.921875 0.546875 10.628906 -0.101562 8.578125 -1.40625 C 6.523438 -2.707031 4.898438 -4.507812 3.703125 -6.8125 C 2.515625 -9.125 1.921875 -11.75 1.921875 -14.6875 C 1.921875 -17.613281 2.503906 -20.238281 3.671875 -22.5625 C 4.847656 -24.894531 6.453125 -26.710938 8.484375 -28.015625 C 10.523438 -29.316406 12.773438 -29.96875 15.234375 -29.96875 C 16.992188 -29.96875 18.644531 -29.644531 20.1875 -29 C 21.726562 -28.363281 23.03125 -27.550781 24.09375 -26.5625 L 24.09375 -26.625 C 24.09375 -27.570312 24.398438 -28.363281 25.015625 -29 C 25.640625 -29.644531 26.429688 -29.96875 27.390625 -29.96875 Z M 16.28125 -5.5 C 18.664062 -5.5 20.609375 -6.367188 22.109375 -8.109375 C 23.609375 -9.847656 24.359375 -12.039062 24.359375 -14.6875 C 24.359375 -17.320312 23.609375 -19.519531 22.109375 -21.28125 C 20.609375 -23.039062 18.664062 -23.921875 16.28125 -23.921875 C 13.9375 -23.921875 12.007812 -23.039062 10.5 -21.28125 C 9 -19.519531 8.25 -17.320312 8.25 -14.6875 C 8.25 -12.039062 8.988281 -9.847656 10.46875 -8.109375 C 11.957031 -6.367188 13.894531 -5.5 16.28125 -5.5 Z M 16.28125 -5.5 "/></g></g></g><g fill="#ffffff" fill-opacity="1"><g transform="translate(245.453122, 188.250016)"><g><path d="M 18.8125 -29.96875 C 21.34375 -29.96875 23.632812 -29.316406 25.6875 -28.015625 C 27.738281 -26.710938 29.359375 -24.90625 30.546875 -22.59375 C 31.742188 -20.289062 32.34375 -17.671875 32.34375 -14.734375 C 32.34375 -11.804688 31.753906 -9.175781 30.578125 -6.84375 C 29.398438 -4.519531 27.796875 -2.707031 25.765625 -1.40625 C 23.734375 -0.101562 21.488281 0.546875 19.03125 0.546875 C 17.269531 0.546875 15.609375 0.191406 14.046875 -0.515625 C 12.492188 -1.234375 11.203125 -2.109375 10.171875 -3.140625 L 10.171875 -2.8125 C 10.171875 -1.851562 9.859375 -1.050781 9.234375 -0.40625 C 8.617188 0.226562 7.832031 0.546875 6.875 0.546875 C 5.914062 0.546875 5.125 0.238281 4.5 -0.375 C 3.882812 -1 3.578125 -1.8125 3.578125 -2.8125 L 3.578125 -37.34375 C 3.578125 -38.300781 3.882812 -39.097656 4.5 -39.734375 C 5.125 -40.378906 5.914062 -40.703125 6.875 -40.703125 C 7.832031 -40.703125 8.617188 -40.378906 9.234375 -39.734375 C 9.859375 -39.097656 10.171875 -38.300781 10.171875 -37.34375 L 10.171875 -25.84375 C 11.054688 -26.945312 12.285156 -27.910156 13.859375 -28.734375 C 15.429688 -29.554688 17.082031 -29.96875 18.8125 -29.96875 Z M 17.984375 -5.5 C 20.328125 -5.5 22.25 -6.378906 23.75 -8.140625 C 25.257812 -9.898438 26.015625 -12.097656 26.015625 -14.734375 C 26.015625 -17.378906 25.269531 -19.570312 23.78125 -21.3125 C 22.300781 -23.050781 20.367188 -23.921875 17.984375 -23.921875 C 15.597656 -23.921875 13.65625 -23.050781 12.15625 -21.3125 C 10.65625 -19.570312 9.90625 -17.378906 9.90625 -14.734375 C 9.90625 -12.097656 10.65625 -9.898438 12.15625 -8.140625 C 13.65625 -6.378906 15.597656 -5.5 17.984375 -5.5 Z M 17.984375 -5.5 "/></g></g></g><g fill="#ffffff" fill-opacity="1"><g transform="translate(279.715632, 188.250016)"><g><path d="M 10.71875 -3.359375 C 10.71875 -2.398438 10.394531 -1.597656 9.75 -0.953125 C 9.113281 -0.316406 8.320312 0 7.375 0 C 6.457031 0 5.6875 -0.316406 5.0625 -0.953125 C 4.4375 -1.597656 4.125 -2.398438 4.125 -3.359375 L 4.125 -37.34375 C 4.125 -38.300781 4.441406 -39.097656 5.078125 -39.734375 C 5.722656 -40.378906 6.523438 -40.703125 7.484375 -40.703125 C 8.398438 -40.703125 9.164062 -40.378906 9.78125 -39.734375 C 10.40625 -39.097656 10.71875 -38.300781 10.71875 -37.34375 Z M 10.71875 -3.359375 "/></g></g></g><g fill="#ffffff" fill-opacity="1"><g transform="translate(294.564558, 188.250016)"><g><path d="M 31.84375 -14.6875 C 31.84375 -11.75 31.179688 -9.113281 29.859375 -6.78125 C 28.546875 -4.457031 26.742188 -2.65625 24.453125 -1.375 C 22.160156 -0.09375 19.640625 0.546875 16.890625 0.546875 C 14.097656 0.546875 11.566406 -0.09375 9.296875 -1.375 C 7.023438 -2.65625 5.226562 -4.457031 3.90625 -6.78125 C 2.582031 -9.113281 1.921875 -11.75 1.921875 -14.6875 C 1.921875 -17.613281 2.582031 -20.238281 3.90625 -22.5625 C 5.226562 -24.894531 7.023438 -26.710938 9.296875 -28.015625 C 11.566406 -29.316406 14.097656 -29.96875 16.890625 -29.96875 C 19.640625 -29.96875 22.160156 -29.316406 24.453125 -28.015625 C 26.742188 -26.710938 28.546875 -24.894531 29.859375 -22.5625 C 31.179688 -20.238281 31.84375 -17.613281 31.84375 -14.6875 Z M 25.25 -14.6875 C 25.25 -16.476562 24.867188 -18.078125 24.109375 -19.484375 C 23.359375 -20.898438 22.347656 -21.992188 21.078125 -22.765625 C 19.816406 -23.535156 18.421875 -23.921875 16.890625 -23.921875 C 15.347656 -23.921875 13.941406 -23.535156 12.671875 -22.765625 C 11.410156 -21.992188 10.40625 -20.898438 9.65625 -19.484375 C 8.90625 -18.078125 8.53125 -16.476562 8.53125 -14.6875 C 8.53125 -12.882812 8.90625 -11.285156 9.65625 -9.890625 C 10.40625 -8.503906 11.410156 -7.425781 12.671875 -6.65625 C 13.941406 -5.882812 15.347656 -5.5 16.890625 -5.5 C 18.421875 -5.5 19.816406 -5.882812 21.078125 -6.65625 C 22.347656 -7.425781 23.359375 -8.503906 24.109375 -9.890625 C 24.867188 -11.285156 25.25 -12.882812 25.25 -14.6875 Z M 25.25 -14.6875 "/></g></g></g><g fill="#ffffff" fill-opacity="1"><g transform="translate(328.332111, 188.250016)"><g><path d="M 6.484375 -0.0625 C 5.421875 -0.0625 4.601562 -0.34375 4.03125 -0.90625 C 3.46875 -1.476562 3.1875 -2.296875 3.1875 -3.359375 L 3.1875 -4.296875 C 3.1875 -5.359375 3.46875 -6.171875 4.03125 -6.734375 C 4.601562 -7.304688 5.421875 -7.59375 6.484375 -7.59375 L 7.203125 -7.59375 C 8.265625 -7.59375 9.078125 -7.304688 9.640625 -6.734375 C 10.210938 -6.171875 10.5 -5.359375 10.5 -4.296875 L 10.5 -3.359375 C 10.5 -2.296875 10.210938 -1.476562 9.640625 -0.90625 C 9.078125 -0.34375 8.265625 -0.0625 7.203125 -0.0625 Z M 6.484375 -0.0625 "/></g></g></g></svg>