<svg xmlns="http://www.w3.org/2000/svg" xmlns:xlink="http://www.w3.org/1999/xlink" width="40" zoomAndPan="magnify" viewBox="0 0 30 30.000001" height="40" preserveAspectRatio="xMidYMid meet" version="1.0"><defs><g/></defs><g fill="#38b6ff" fill-opacity="1"><g transform="translate(4.120973, 15.806453)"><g><path d="M 0.921875 0.03125 C 0.773438 0.03125 0.640625 0.00390625 0.515625 -0.046875 C 0.390625 -0.109375 0.285156 -0.195312 0.203125 -0.3125 C 0.171875 -0.351562 0.15625 -0.394531 0.15625 -0.4375 C 0.15625 -0.5 0.175781 -0.550781 0.21875 -0.59375 C 0.269531 -0.644531 0.320312 -0.671875 0.375 -0.671875 C 0.445312 -0.671875 0.519531 -0.628906 0.59375 -0.546875 C 0.644531 -0.503906 0.695312 -0.472656 0.75 -0.453125 C 0.800781 -0.429688 0.859375 -0.421875 0.921875 -0.421875 C 0.992188 -0.421875 1.0625 -0.441406 1.125 -0.484375 C 1.195312 -0.523438 1.253906 -0.578125 1.296875 -0.640625 C 1.335938 -0.703125 1.359375 -0.769531 1.359375 -0.84375 L 1.359375 -2.46875 C 1.359375 -2.539062 1.382812 -2.597656 1.4375 -2.640625 C 1.488281 -2.691406 1.546875 -2.71875 1.609375 -2.71875 C 1.679688 -2.71875 1.738281 -2.691406 1.78125 -2.640625 C 1.820312 -2.597656 1.84375 -2.539062 1.84375 -2.46875 L 1.84375 -0.84375 C 1.84375 -0.6875 1.800781 -0.539062 1.71875 -0.40625 C 1.632812 -0.269531 1.519531 -0.160156 1.375 -0.078125 C 1.238281 -0.00390625 1.085938 0.03125 0.921875 0.03125 Z M 0.921875 0.03125 "/></g></g></g><g fill="#ffffff" fill-opacity="1"><g transform="translate(6.253028, 15.806453)"><g><path d="M 1.796875 -2.078125 C 1.859375 -2.078125 1.910156 -2.050781 1.953125 -2 C 1.992188 -1.957031 2.015625 -1.90625 2.015625 -1.84375 L 2.015625 -0.859375 C 2.015625 -0.578125 1.9375 -0.359375 1.78125 -0.203125 C 1.632812 -0.046875 1.421875 0.03125 1.140625 0.03125 C 0.847656 0.03125 0.625 -0.046875 0.46875 -0.203125 C 0.320312 -0.359375 0.25 -0.578125 0.25 -0.859375 L 0.25 -1.84375 C 0.25 -1.90625 0.269531 -1.957031 0.3125 -2 C 0.363281 -2.050781 0.421875 -2.078125 0.484375 -2.078125 C 0.546875 -2.078125 0.597656 -2.050781 0.640625 -2 C 0.691406 -1.957031 0.71875 -1.90625 0.71875 -1.84375 L 0.71875 -0.859375 C 0.71875 -0.691406 0.75 -0.570312 0.8125 -0.5 C 0.882812 -0.425781 0.992188 -0.390625 1.140625 -0.390625 C 1.273438 -0.390625 1.378906 -0.425781 1.453125 -0.5 C 1.523438 -0.570312 1.5625 -0.691406 1.5625 -0.859375 L 1.5625 -1.84375 C 1.5625 -1.90625 1.582031 -1.957031 1.625 -2 C 1.664062 -2.050781 1.722656 -2.078125 1.796875 -2.078125 Z M 1.796875 -2.078125 "/></g></g></g><g fill="#ffffff" fill-opacity="1"><g transform="translate(8.525302, 15.806453)"><g><path d="M 1.9375 -2.109375 C 2 -2.109375 2.050781 -2.085938 2.09375 -2.046875 C 2.132812 -2.003906 2.15625 -1.945312 2.15625 -1.875 L 2.15625 -0.234375 C 2.15625 -0.171875 2.132812 -0.113281 2.09375 -0.0625 C 2.050781 -0.0195312 2 0 1.9375 0 C 1.863281 0 1.804688 -0.0195312 1.765625 -0.0625 C 1.722656 -0.101562 1.703125 -0.160156 1.703125 -0.234375 C 1.628906 -0.160156 1.535156 -0.0976562 1.421875 -0.046875 C 1.316406 0.00390625 1.207031 0.03125 1.09375 0.03125 C 0.914062 0.03125 0.753906 -0.0078125 0.609375 -0.09375 C 0.460938 -0.1875 0.347656 -0.3125 0.265625 -0.46875 C 0.179688 -0.632812 0.140625 -0.820312 0.140625 -1.03125 C 0.140625 -1.238281 0.179688 -1.425781 0.265625 -1.59375 C 0.347656 -1.757812 0.457031 -1.882812 0.59375 -1.96875 C 0.738281 -2.0625 0.898438 -2.109375 1.078125 -2.109375 C 1.203125 -2.109375 1.316406 -2.082031 1.421875 -2.03125 C 1.523438 -1.988281 1.617188 -1.9375 1.703125 -1.875 C 1.703125 -1.9375 1.722656 -1.988281 1.765625 -2.03125 C 1.804688 -2.082031 1.863281 -2.109375 1.9375 -2.109375 Z M 1.140625 -0.390625 C 1.316406 -0.390625 1.457031 -0.445312 1.5625 -0.5625 C 1.664062 -0.6875 1.71875 -0.84375 1.71875 -1.03125 C 1.71875 -1.21875 1.664062 -1.375 1.5625 -1.5 C 1.457031 -1.625 1.316406 -1.6875 1.140625 -1.6875 C 0.984375 -1.6875 0.847656 -1.625 0.734375 -1.5 C 0.628906 -1.375 0.578125 -1.21875 0.578125 -1.03125 C 0.578125 -0.84375 0.628906 -0.6875 0.734375 -0.5625 C 0.835938 -0.445312 0.972656 -0.390625 1.140625 -0.390625 Z M 1.140625 -0.390625 "/></g></g></g><g fill="#ffffff" fill-opacity="1"><g transform="translate(10.936933, 15.806453)"><g><path d="M 1.359375 -2.109375 C 1.617188 -2.109375 1.800781 -2.03125 1.90625 -1.875 C 2.007812 -1.71875 2.0625 -1.503906 2.0625 -1.234375 L 2.0625 -0.234375 C 2.0625 -0.171875 2.035156 -0.113281 1.984375 -0.0625 C 1.941406 -0.0195312 1.890625 0 1.828125 0 C 1.753906 0 1.695312 -0.0195312 1.65625 -0.0625 C 1.613281 -0.113281 1.59375 -0.171875 1.59375 -0.234375 L 1.59375 -1.234375 C 1.59375 -1.367188 1.5625 -1.476562 1.5 -1.5625 C 1.445312 -1.644531 1.347656 -1.6875 1.203125 -1.6875 C 1.046875 -1.6875 0.925781 -1.640625 0.84375 -1.546875 C 0.757812 -1.460938 0.71875 -1.359375 0.71875 -1.234375 L 0.71875 -0.234375 C 0.71875 -0.171875 0.691406 -0.113281 0.640625 -0.0625 C 0.597656 -0.0195312 0.546875 0 0.484375 0 C 0.421875 0 0.363281 -0.0195312 0.3125 -0.0625 C 0.269531 -0.113281 0.25 -0.171875 0.25 -0.234375 L 0.25 -1.84375 C 0.25 -1.90625 0.269531 -1.957031 0.3125 -2 C 0.363281 -2.050781 0.421875 -2.078125 0.484375 -2.078125 C 0.546875 -2.078125 0.597656 -2.050781 0.640625 -2 C 0.691406 -1.957031 0.71875 -1.90625 0.71875 -1.84375 L 0.71875 -1.765625 C 0.789062 -1.859375 0.878906 -1.9375 0.984375 -2 C 1.097656 -2.070312 1.222656 -2.109375 1.359375 -2.109375 Z M 1.359375 -2.109375 "/></g></g></g><g fill="#ffffff" fill-opacity="1"><g transform="translate(13.244045, 15.806453)"><g/></g></g><g fill="#38b6ff" fill-opacity="1"><g transform="translate(14.327621, 15.806453)"><g><path d="M 1.40625 -2.71875 C 1.539062 -2.71875 1.664062 -2.675781 1.78125 -2.59375 C 1.90625 -2.507812 2.003906 -2.398438 2.078125 -2.265625 C 2.148438 -2.140625 2.1875 -2 2.1875 -1.84375 C 2.1875 -1.6875 2.148438 -1.539062 2.078125 -1.40625 C 2.003906 -1.269531 1.90625 -1.160156 1.78125 -1.078125 C 1.664062 -1.003906 1.539062 -0.96875 1.40625 -0.96875 L 0.734375 -0.96875 L 0.734375 -0.234375 C 0.734375 -0.160156 0.710938 -0.101562 0.671875 -0.0625 C 0.628906 -0.0195312 0.578125 0 0.515625 0 C 0.453125 0 0.398438 -0.0195312 0.359375 -0.0625 C 0.316406 -0.113281 0.296875 -0.171875 0.296875 -0.234375 L 0.296875 -2.46875 C 0.296875 -2.539062 0.316406 -2.597656 0.359375 -2.640625 C 0.398438 -2.691406 0.457031 -2.71875 0.53125 -2.71875 Z M 1.40625 -1.40625 C 1.457031 -1.40625 1.503906 -1.425781 1.546875 -1.46875 C 1.597656 -1.507812 1.640625 -1.5625 1.671875 -1.625 C 1.703125 -1.695312 1.71875 -1.769531 1.71875 -1.84375 C 1.71875 -1.914062 1.703125 -1.984375 1.671875 -2.046875 C 1.640625 -2.109375 1.597656 -2.160156 1.546875 -2.203125 C 1.503906 -2.242188 1.457031 -2.265625 1.40625 -2.265625 L 0.734375 -2.265625 L 0.734375 -1.40625 Z M 1.40625 -1.40625 "/></g></g></g><g fill="#ffffff" fill-opacity="1"><g transform="translate(16.661289, 15.806453)"><g><path d="M 1.9375 -2.109375 C 2 -2.109375 2.050781 -2.085938 2.09375 -2.046875 C 2.132812 -2.003906 2.15625 -1.945312 2.15625 -1.875 L 2.15625 -0.234375 C 2.15625 -0.171875 2.132812 -0.113281 2.09375 -0.0625 C 2.050781 -0.0195312 2 0 1.9375 0 C 1.863281 0 1.804688 -0.0195312 1.765625 -0.0625 C 1.722656 -0.101562 1.703125 -0.160156 1.703125 -0.234375 C 1.628906 -0.160156 1.535156 -0.0976562 1.421875 -0.046875 C 1.316406 0.00390625 1.207031 0.03125 1.09375 0.03125 C 0.914062 0.03125 0.753906 -0.0078125 0.609375 -0.09375 C 0.460938 -0.1875 0.347656 -0.3125 0.265625 -0.46875 C 0.179688 -0.632812 0.140625 -0.820312 0.140625 -1.03125 C 0.140625 -1.238281 0.179688 -1.425781 0.265625 -1.59375 C 0.347656 -1.757812 0.457031 -1.882812 0.59375 -1.96875 C 0.738281 -2.0625 0.898438 -2.109375 1.078125 -2.109375 C 1.203125 -2.109375 1.316406 -2.082031 1.421875 -2.03125 C 1.523438 -1.988281 1.617188 -1.9375 1.703125 -1.875 C 1.703125 -1.9375 1.722656 -1.988281 1.765625 -2.03125 C 1.804688 -2.082031 1.863281 -2.109375 1.9375 -2.109375 Z M 1.140625 -0.390625 C 1.316406 -0.390625 1.457031 -0.445312 1.5625 -0.5625 C 1.664062 -0.6875 1.71875 -0.84375 1.71875 -1.03125 C 1.71875 -1.21875 1.664062 -1.375 1.5625 -1.5 C 1.457031 -1.625 1.316406 -1.6875 1.140625 -1.6875 C 0.984375 -1.6875 0.847656 -1.625 0.734375 -1.5 C 0.628906 -1.375 0.578125 -1.21875 0.578125 -1.03125 C 0.578125 -0.84375 0.628906 -0.6875 0.734375 -0.5625 C 0.835938 -0.445312 0.972656 -0.390625 1.140625 -0.390625 Z M 1.140625 -0.390625 "/></g></g></g><g fill="#ffffff" fill-opacity="1"><g transform="translate(19.072919, 15.806453)"><g><path d="M 1.328125 -2.109375 C 1.503906 -2.109375 1.664062 -2.0625 1.8125 -1.96875 C 1.957031 -1.882812 2.070312 -1.757812 2.15625 -1.59375 C 2.238281 -1.425781 2.28125 -1.238281 2.28125 -1.03125 C 2.28125 -0.832031 2.238281 -0.648438 2.15625 -0.484375 C 2.070312 -0.316406 1.957031 -0.1875 1.8125 -0.09375 C 1.664062 -0.0078125 1.507812 0.03125 1.34375 0.03125 C 1.21875 0.03125 1.097656 0.0078125 0.984375 -0.03125 C 0.878906 -0.0820312 0.789062 -0.144531 0.71875 -0.21875 L 0.71875 -0.203125 C 0.71875 -0.128906 0.691406 -0.0703125 0.640625 -0.03125 C 0.597656 0.0078125 0.546875 0.03125 0.484375 0.03125 C 0.421875 0.03125 0.363281 0.0078125 0.3125 -0.03125 C 0.269531 -0.0703125 0.25 -0.128906 0.25 -0.203125 L 0.25 -2.625 C 0.25 -2.695312 0.269531 -2.753906 0.3125 -2.796875 C 0.363281 -2.847656 0.421875 -2.875 0.484375 -2.875 C 0.546875 -2.875 0.597656 -2.847656 0.640625 -2.796875 C 0.691406 -2.753906 0.71875 -2.695312 0.71875 -2.625 L 0.71875 -1.828125 C 0.78125 -1.898438 0.863281 -1.960938 0.96875 -2.015625 C 1.082031 -2.078125 1.203125 -2.109375 1.328125 -2.109375 Z M 1.265625 -0.390625 C 1.429688 -0.390625 1.566406 -0.453125 1.671875 -0.578125 C 1.773438 -0.703125 1.828125 -0.851562 1.828125 -1.03125 C 1.828125 -1.21875 1.773438 -1.375 1.671875 -1.5 C 1.566406 -1.625 1.429688 -1.6875 1.265625 -1.6875 C 1.097656 -1.6875 0.960938 -1.625 0.859375 -1.5 C 0.753906 -1.375 0.703125 -1.21875 0.703125 -1.03125 C 0.703125 -0.851562 0.753906 -0.703125 0.859375 -0.578125 C 0.960938 -0.453125 1.097656 -0.390625 1.265625 -0.390625 Z M 1.265625 -0.390625 "/></g></g></g><g fill="#ffffff" fill-opacity="1"><g transform="translate(21.48455, 15.806453)"><g><path d="M 0.75 -0.234375 C 0.75 -0.171875 0.726562 -0.113281 0.6875 -0.0625 C 0.644531 -0.0195312 0.585938 0 0.515625 0 C 0.453125 0 0.398438 -0.0195312 0.359375 -0.0625 C 0.316406 -0.113281 0.296875 -0.171875 0.296875 -0.234375 L 0.296875 -2.625 C 0.296875 -2.695312 0.316406 -2.753906 0.359375 -2.796875 C 0.398438 -2.847656 0.457031 -2.875 0.53125 -2.875 C 0.59375 -2.875 0.644531 -2.847656 0.6875 -2.796875 C 0.726562 -2.753906 0.75 -2.695312 0.75 -2.625 Z M 0.75 -0.234375 "/></g></g></g><g fill="#ffffff" fill-opacity="1"><g transform="translate(22.529717, 15.806453)"><g><path d="M 2.25 -1.03125 C 2.25 -0.820312 2.203125 -0.632812 2.109375 -0.46875 C 2.015625 -0.3125 1.882812 -0.1875 1.71875 -0.09375 C 1.5625 -0.0078125 1.382812 0.03125 1.1875 0.03125 C 0.988281 0.03125 0.8125 -0.0078125 0.65625 -0.09375 C 0.5 -0.1875 0.375 -0.3125 0.28125 -0.46875 C 0.1875 -0.632812 0.140625 -0.820312 0.140625 -1.03125 C 0.140625 -1.238281 0.1875 -1.425781 0.28125 -1.59375 C 0.375 -1.757812 0.5 -1.882812 0.65625 -1.96875 C 0.8125 -2.0625 0.988281 -2.109375 1.1875 -2.109375 C 1.382812 -2.109375 1.5625 -2.0625 1.71875 -1.96875 C 1.882812 -1.882812 2.015625 -1.757812 2.109375 -1.59375 C 2.203125 -1.425781 2.25 -1.238281 2.25 -1.03125 Z M 1.78125 -1.03125 C 1.78125 -1.15625 1.753906 -1.265625 1.703125 -1.359375 C 1.648438 -1.460938 1.578125 -1.539062 1.484375 -1.59375 C 1.398438 -1.65625 1.300781 -1.6875 1.1875 -1.6875 C 1.082031 -1.6875 0.984375 -1.65625 0.890625 -1.59375 C 0.804688 -1.539062 0.734375 -1.460938 0.671875 -1.359375 C 0.617188 -1.265625 0.59375 -1.15625 0.59375 -1.03125 C 0.59375 -0.90625 0.617188 -0.789062 0.671875 -0.6875 C 0.734375 -0.59375 0.804688 -0.519531 0.890625 -0.46875 C 0.984375 -0.414062 1.082031 -0.390625 1.1875 -0.390625 C 1.300781 -0.390625 1.398438 -0.414062 1.484375 -0.46875 C 1.578125 -0.519531 1.648438 -0.59375 1.703125 -0.6875 C 1.753906 -0.789062 1.78125 -0.90625 1.78125 -1.03125 Z M 1.78125 -1.03125 "/></g></g></g><g fill="#ffffff" fill-opacity="1"><g transform="translate(24.906509, 15.806453)"><g><path d="M 0.453125 0 C 0.378906 0 0.320312 -0.0195312 0.28125 -0.0625 C 0.238281 -0.101562 0.21875 -0.160156 0.21875 -0.234375 L 0.21875 -0.296875 C 0.21875 -0.378906 0.238281 -0.4375 0.28125 -0.46875 C 0.320312 -0.507812 0.378906 -0.53125 0.453125 -0.53125 L 0.5 -0.53125 C 0.582031 -0.53125 0.640625 -0.507812 0.671875 -0.46875 C 0.710938 -0.4375 0.734375 -0.378906 0.734375 -0.296875 L 0.734375 -0.234375 C 0.734375 -0.160156 0.710938 -0.101562 0.671875 -0.0625 C 0.640625 -0.0195312 0.582031 0 0.5 0 Z M 0.453125 0 "/></g></g></g></svg>