<svg xmlns="http://www.w3.org/2000/svg" xmlns:xlink="http://www.w3.org/1999/xlink" width="200" zoomAndPan="magnify" viewBox="0 0 150 149.999998" height="200" preserveAspectRatio="xMidYMid meet" version="1.0"><defs><g/></defs><g fill="#38b6ff" fill-opacity="1"><g transform="translate(35.688281, 78.024989)"><g><path d="M 3.328125 0.140625 C 2.796875 0.140625 2.300781 0.03125 1.84375 -0.1875 C 1.382812 -0.40625 1.015625 -0.710938 0.734375 -1.109375 C 0.617188 -1.273438 0.5625 -1.4375 0.5625 -1.59375 C 0.5625 -1.820312 0.648438 -2.015625 0.828125 -2.171875 C 1.003906 -2.335938 1.1875 -2.421875 1.375 -2.421875 C 1.613281 -2.421875 1.875 -2.28125 2.15625 -2 C 2.332031 -1.832031 2.515625 -1.710938 2.703125 -1.640625 C 2.890625 -1.578125 3.097656 -1.546875 3.328125 -1.546875 C 3.597656 -1.546875 3.859375 -1.613281 4.109375 -1.75 C 4.359375 -1.882812 4.554688 -2.070312 4.703125 -2.3125 C 4.847656 -2.550781 4.921875 -2.800781 4.921875 -3.0625 L 4.921875 -8.953125 C 4.921875 -9.191406 5.007812 -9.390625 5.1875 -9.546875 C 5.363281 -9.710938 5.570312 -9.796875 5.8125 -9.796875 C 6.070312 -9.796875 6.28125 -9.71875 6.4375 -9.5625 C 6.59375 -9.40625 6.671875 -9.203125 6.671875 -8.953125 L 6.671875 -3.0625 C 6.671875 -2.5 6.519531 -1.96875 6.21875 -1.46875 C 5.925781 -0.976562 5.519531 -0.585938 5 -0.296875 C 4.488281 -0.00390625 3.929688 0.140625 3.328125 0.140625 Z M 3.328125 0.140625 "/></g></g></g><g fill="#ffffff" fill-opacity="1"><g transform="translate(43.410936, 78.024989)"><g><path d="M 6.46875 -7.484375 C 6.707031 -7.484375 6.90625 -7.398438 7.0625 -7.234375 C 7.226562 -7.078125 7.3125 -6.878906 7.3125 -6.640625 L 7.3125 -3.078125 C 7.3125 -2.066406 7.03125 -1.273438 6.46875 -0.703125 C 5.914062 -0.140625 5.128906 0.140625 4.109375 0.140625 C 3.078125 0.140625 2.285156 -0.140625 1.734375 -0.703125 C 1.179688 -1.273438 0.90625 -2.066406 0.90625 -3.078125 L 0.90625 -6.640625 C 0.90625 -6.878906 0.984375 -7.078125 1.140625 -7.234375 C 1.304688 -7.398438 1.507812 -7.484375 1.75 -7.484375 C 1.988281 -7.484375 2.1875 -7.398438 2.34375 -7.234375 C 2.507812 -7.078125 2.59375 -6.878906 2.59375 -6.640625 L 2.59375 -3.078125 C 2.59375 -2.503906 2.71875 -2.082031 2.96875 -1.8125 C 3.21875 -1.539062 3.597656 -1.40625 4.109375 -1.40625 C 4.617188 -1.40625 5 -1.539062 5.25 -1.8125 C 5.5 -2.082031 5.625 -2.503906 5.625 -3.078125 L 5.625 -6.640625 C 5.625 -6.878906 5.703125 -7.078125 5.859375 -7.234375 C 6.023438 -7.398438 6.226562 -7.484375 6.46875 -7.484375 Z M 6.46875 -7.484375 "/></g></g></g><g fill="#ffffff" fill-opacity="1"><g transform="translate(51.624349, 78.024989)"><g><path d="M 6.96875 -7.625 C 7.21875 -7.625 7.421875 -7.546875 7.578125 -7.390625 C 7.734375 -7.234375 7.8125 -7.03125 7.8125 -6.78125 L 7.8125 -0.859375 C 7.8125 -0.609375 7.734375 -0.398438 7.578125 -0.234375 C 7.421875 -0.078125 7.21875 0 6.96875 0 C 6.726562 0 6.53125 -0.078125 6.375 -0.234375 C 6.21875 -0.390625 6.132812 -0.59375 6.125 -0.84375 C 5.894531 -0.570312 5.582031 -0.335938 5.1875 -0.140625 C 4.789062 0.046875 4.375 0.140625 3.9375 0.140625 C 3.289062 0.140625 2.707031 -0.0234375 2.1875 -0.359375 C 1.664062 -0.691406 1.25 -1.148438 0.9375 -1.734375 C 0.632812 -2.328125 0.484375 -2.992188 0.484375 -3.734375 C 0.484375 -4.484375 0.632812 -5.15625 0.9375 -5.75 C 1.238281 -6.34375 1.644531 -6.800781 2.15625 -7.125 C 2.675781 -7.457031 3.25 -7.625 3.875 -7.625 C 4.320312 -7.625 4.738281 -7.539062 5.125 -7.375 C 5.519531 -7.21875 5.851562 -7.015625 6.125 -6.765625 L 6.125 -6.78125 C 6.125 -7.019531 6.203125 -7.21875 6.359375 -7.375 C 6.523438 -7.539062 6.726562 -7.625 6.96875 -7.625 Z M 4.140625 -1.40625 C 4.742188 -1.40625 5.238281 -1.625 5.625 -2.0625 C 6.007812 -2.507812 6.203125 -3.066406 6.203125 -3.734375 C 6.203125 -4.410156 6.007812 -4.972656 5.625 -5.421875 C 5.238281 -5.867188 4.742188 -6.09375 4.140625 -6.09375 C 3.546875 -6.09375 3.054688 -5.867188 2.671875 -5.421875 C 2.285156 -4.972656 2.09375 -4.410156 2.09375 -3.734375 C 2.09375 -3.066406 2.28125 -2.507812 2.65625 -2.0625 C 3.039062 -1.625 3.535156 -1.40625 4.140625 -1.40625 Z M 4.140625 -1.40625 "/></g></g></g><g fill="#ffffff" fill-opacity="1"><g transform="translate(60.341485, 78.024989)"><g><path d="M 4.90625 -7.625 C 5.863281 -7.625 6.523438 -7.34375 6.890625 -6.78125 C 7.253906 -6.21875 7.4375 -5.4375 7.4375 -4.4375 L 7.4375 -0.859375 C 7.4375 -0.609375 7.351562 -0.398438 7.1875 -0.234375 C 7.03125 -0.078125 6.832031 0 6.59375 0 C 6.351562 0 6.148438 -0.078125 5.984375 -0.234375 C 5.828125 -0.398438 5.75 -0.609375 5.75 -0.859375 L 5.75 -4.4375 C 5.75 -4.945312 5.640625 -5.347656 5.421875 -5.640625 C 5.210938 -5.941406 4.847656 -6.09375 4.328125 -6.09375 C 3.785156 -6.09375 3.359375 -5.9375 3.046875 -5.625 C 2.742188 -5.3125 2.59375 -4.914062 2.59375 -4.4375 L 2.59375 -0.859375 C 2.59375 -0.609375 2.507812 -0.398438 2.34375 -0.234375 C 2.1875 -0.078125 1.988281 0 1.75 0 C 1.507812 0 1.304688 -0.078125 1.140625 -0.234375 C 0.984375 -0.398438 0.90625 -0.609375 0.90625 -0.859375 L 0.90625 -6.640625 C 0.90625 -6.878906 0.984375 -7.078125 1.140625 -7.234375 C 1.304688 -7.398438 1.507812 -7.484375 1.75 -7.484375 C 1.988281 -7.484375 2.1875 -7.398438 2.34375 -7.234375 C 2.507812 -7.078125 2.59375 -6.878906 2.59375 -6.640625 L 2.59375 -6.390625 C 2.84375 -6.734375 3.171875 -7.023438 3.578125 -7.265625 C 3.984375 -7.503906 4.425781 -7.625 4.90625 -7.625 Z M 4.90625 -7.625 "/></g></g></g><g fill="#ffffff" fill-opacity="1"><g transform="translate(68.680829, 78.024989)"><g/></g></g><g fill="#38b6ff" fill-opacity="1"><g transform="translate(72.590622, 78.024989)"><g><path d="M 5.09375 -9.796875 C 5.570312 -9.796875 6.023438 -9.65625 6.453125 -9.375 C 6.878906 -9.09375 7.222656 -8.707031 7.484375 -8.21875 C 7.742188 -7.738281 7.875 -7.21875 7.875 -6.65625 C 7.875 -6.09375 7.742188 -5.566406 7.484375 -5.078125 C 7.222656 -4.597656 6.878906 -4.210938 6.453125 -3.921875 C 6.023438 -3.640625 5.570312 -3.5 5.09375 -3.5 L 2.65625 -3.5 L 2.65625 -0.859375 C 2.65625 -0.597656 2.582031 -0.390625 2.4375 -0.234375 C 2.289062 -0.078125 2.09375 0 1.84375 0 C 1.613281 0 1.421875 -0.078125 1.265625 -0.234375 C 1.117188 -0.398438 1.046875 -0.609375 1.046875 -0.859375 L 1.046875 -8.953125 C 1.046875 -9.191406 1.128906 -9.390625 1.296875 -9.546875 C 1.460938 -9.710938 1.664062 -9.796875 1.90625 -9.796875 Z M 5.09375 -5.09375 C 5.269531 -5.09375 5.441406 -5.164062 5.609375 -5.3125 C 5.785156 -5.46875 5.925781 -5.664062 6.03125 -5.90625 C 6.144531 -6.144531 6.203125 -6.394531 6.203125 -6.65625 C 6.203125 -6.914062 6.144531 -7.160156 6.03125 -7.390625 C 5.925781 -7.628906 5.785156 -7.820312 5.609375 -7.96875 C 5.441406 -8.113281 5.269531 -8.1875 5.09375 -8.1875 L 2.65625 -8.1875 L 2.65625 -5.09375 Z M 5.09375 -5.09375 "/></g></g></g><g fill="#ffffff" fill-opacity="1"><g transform="translate(81.016403, 78.024989)"><g><path d="M 6.96875 -7.625 C 7.21875 -7.625 7.421875 -7.546875 7.578125 -7.390625 C 7.734375 -7.234375 7.8125 -7.03125 7.8125 -6.78125 L 7.8125 -0.859375 C 7.8125 -0.609375 7.734375 -0.398438 7.578125 -0.234375 C 7.421875 -0.078125 7.21875 0 6.96875 0 C 6.726562 0 6.53125 -0.078125 6.375 -0.234375 C 6.21875 -0.390625 6.132812 -0.59375 6.125 -0.84375 C 5.894531 -0.570312 5.582031 -0.335938 5.1875 -0.140625 C 4.789062 0.046875 4.375 0.140625 3.9375 0.140625 C 3.289062 0.140625 2.707031 -0.0234375 2.1875 -0.359375 C 1.664062 -0.691406 1.25 -1.148438 0.9375 -1.734375 C 0.632812 -2.328125 0.484375 -2.992188 0.484375 -3.734375 C 0.484375 -4.484375 0.632812 -5.15625 0.9375 -5.75 C 1.238281 -6.34375 1.644531 -6.800781 2.15625 -7.125 C 2.675781 -7.457031 3.25 -7.625 3.875 -7.625 C 4.320312 -7.625 4.738281 -7.539062 5.125 -7.375 C 5.519531 -7.21875 5.851562 -7.015625 6.125 -6.765625 L 6.125 -6.78125 C 6.125 -7.019531 6.203125 -7.21875 6.359375 -7.375 C 6.523438 -7.539062 6.726562 -7.625 6.96875 -7.625 Z M 4.140625 -1.40625 C 4.742188 -1.40625 5.238281 -1.625 5.625 -2.0625 C 6.007812 -2.507812 6.203125 -3.066406 6.203125 -3.734375 C 6.203125 -4.410156 6.007812 -4.972656 5.625 -5.421875 C 5.238281 -5.867188 4.742188 -6.09375 4.140625 -6.09375 C 3.546875 -6.09375 3.054688 -5.867188 2.671875 -5.421875 C 2.285156 -4.972656 2.09375 -4.410156 2.09375 -3.734375 C 2.09375 -3.066406 2.28125 -2.507812 2.65625 -2.0625 C 3.039062 -1.625 3.535156 -1.40625 4.140625 -1.40625 Z M 4.140625 -1.40625 "/></g></g></g><g fill="#ffffff" fill-opacity="1"><g transform="translate(89.733539, 78.024989)"><g><path d="M 4.78125 -7.625 C 5.425781 -7.625 6.007812 -7.457031 6.53125 -7.125 C 7.0625 -6.800781 7.476562 -6.34375 7.78125 -5.75 C 8.082031 -5.164062 8.234375 -4.5 8.234375 -3.75 C 8.234375 -3 8.082031 -2.328125 7.78125 -1.734375 C 7.488281 -1.148438 7.082031 -0.691406 6.5625 -0.359375 C 6.039062 -0.0234375 5.46875 0.140625 4.84375 0.140625 C 4.394531 0.140625 3.972656 0.0507812 3.578125 -0.125 C 3.179688 -0.3125 2.851562 -0.535156 2.59375 -0.796875 L 2.59375 -0.71875 C 2.59375 -0.46875 2.507812 -0.257812 2.34375 -0.09375 C 2.1875 0.0625 1.988281 0.140625 1.75 0.140625 C 1.507812 0.140625 1.304688 0.0625 1.140625 -0.09375 C 0.984375 -0.257812 0.90625 -0.46875 0.90625 -0.71875 L 0.90625 -9.5 C 0.90625 -9.75 0.984375 -9.953125 1.140625 -10.109375 C 1.304688 -10.273438 1.507812 -10.359375 1.75 -10.359375 C 1.988281 -10.359375 2.1875 -10.273438 2.34375 -10.109375 C 2.507812 -9.953125 2.59375 -9.75 2.59375 -9.5 L 2.59375 -6.578125 C 2.8125 -6.859375 3.117188 -7.101562 3.515625 -7.3125 C 3.921875 -7.519531 4.34375 -7.625 4.78125 -7.625 Z M 4.578125 -1.40625 C 5.171875 -1.40625 5.660156 -1.628906 6.046875 -2.078125 C 6.429688 -2.523438 6.625 -3.082031 6.625 -3.75 C 6.625 -4.425781 6.429688 -4.984375 6.046875 -5.421875 C 5.671875 -5.867188 5.179688 -6.09375 4.578125 -6.09375 C 3.972656 -6.09375 3.476562 -5.867188 3.09375 -5.421875 C 2.707031 -4.984375 2.515625 -4.425781 2.515625 -3.75 C 2.515625 -3.082031 2.707031 -2.523438 3.09375 -2.078125 C 3.476562 -1.628906 3.972656 -1.40625 4.578125 -1.40625 Z M 4.578125 -1.40625 "/></g></g></g><g fill="#ffffff" fill-opacity="1"><g transform="translate(98.450675, 78.024989)"><g><path d="M 2.734375 -0.859375 C 2.734375 -0.609375 2.648438 -0.398438 2.484375 -0.234375 C 2.316406 -0.078125 2.113281 0 1.875 0 C 1.644531 0 1.445312 -0.078125 1.28125 -0.234375 C 1.125 -0.398438 1.046875 -0.609375 1.046875 -0.859375 L 1.046875 -9.5 C 1.046875 -9.75 1.128906 -9.953125 1.296875 -10.109375 C 1.460938 -10.273438 1.664062 -10.359375 1.90625 -10.359375 C 2.132812 -10.359375 2.328125 -10.273438 2.484375 -10.109375 C 2.648438 -9.953125 2.734375 -9.75 2.734375 -9.5 Z M 2.734375 -0.859375 "/></g></g></g><g fill="#ffffff" fill-opacity="1"><g transform="translate(102.228564, 78.024989)"><g><path d="M 8.109375 -3.734375 C 8.109375 -2.992188 7.9375 -2.328125 7.59375 -1.734375 C 7.257812 -1.140625 6.800781 -0.675781 6.21875 -0.34375 C 5.632812 -0.0195312 4.992188 0.140625 4.296875 0.140625 C 3.585938 0.140625 2.941406 -0.0195312 2.359375 -0.34375 C 1.785156 -0.675781 1.328125 -1.140625 0.984375 -1.734375 C 0.648438 -2.328125 0.484375 -2.992188 0.484375 -3.734375 C 0.484375 -4.484375 0.648438 -5.15625 0.984375 -5.75 C 1.328125 -6.34375 1.785156 -6.800781 2.359375 -7.125 C 2.941406 -7.457031 3.585938 -7.625 4.296875 -7.625 C 4.992188 -7.625 5.632812 -7.457031 6.21875 -7.125 C 6.800781 -6.800781 7.257812 -6.34375 7.59375 -5.75 C 7.9375 -5.15625 8.109375 -4.484375 8.109375 -3.734375 Z M 6.421875 -3.734375 C 6.421875 -4.191406 6.328125 -4.597656 6.140625 -4.953125 C 5.953125 -5.316406 5.695312 -5.597656 5.375 -5.796875 C 5.050781 -5.992188 4.691406 -6.09375 4.296875 -6.09375 C 3.898438 -6.09375 3.539062 -5.992188 3.21875 -5.796875 C 2.90625 -5.597656 2.648438 -5.316406 2.453125 -4.953125 C 2.265625 -4.597656 2.171875 -4.191406 2.171875 -3.734375 C 2.171875 -3.273438 2.265625 -2.867188 2.453125 -2.515625 C 2.648438 -2.160156 2.90625 -1.882812 3.21875 -1.6875 C 3.539062 -1.5 3.898438 -1.40625 4.296875 -1.40625 C 4.691406 -1.40625 5.050781 -1.5 5.375 -1.6875 C 5.695312 -1.882812 5.953125 -2.160156 6.140625 -2.515625 C 6.328125 -2.867188 6.421875 -3.273438 6.421875 -3.734375 Z M 6.421875 -3.734375 "/></g></g></g><g fill="#ffffff" fill-opacity="1"><g transform="translate(110.819769, 78.024989)"><g><path d="M 1.65625 -0.015625 C 1.382812 -0.015625 1.175781 -0.0859375 1.03125 -0.234375 C 0.882812 -0.378906 0.8125 -0.585938 0.8125 -0.859375 L 0.8125 -1.09375 C 0.8125 -1.363281 0.882812 -1.570312 1.03125 -1.71875 C 1.175781 -1.863281 1.382812 -1.9375 1.65625 -1.9375 L 1.828125 -1.9375 C 2.097656 -1.9375 2.304688 -1.863281 2.453125 -1.71875 C 2.597656 -1.570312 2.671875 -1.363281 2.671875 -1.09375 L 2.671875 -0.859375 C 2.671875 -0.585938 2.597656 -0.378906 2.453125 -0.234375 C 2.304688 -0.0859375 2.097656 -0.015625 1.828125 -0.015625 Z M 1.65625 -0.015625 "/></g></g></g></svg>